HIERARCHY
ROOT Hips
{
	OFFSET 0.000000 0.000000 0.000000
	CHANNELS 6 Xposition Yposition Zposition Zrotation Yrotation Xrotation 
	JOINT LHipJoint
	{
		OFFSET 0.000000 0.000000 0.000000
		CHANNELS 3 Zrotation Yrotation Xrotation
		JOINT LeftUpLeg
		{
			OFFSET 1.363060 -1.794630 0.839290
			CHANNELS 3 Zrotation Yrotation Xrotation
			JOINT LeftLeg
			{
				OFFSET 2.448110 -6.726130 0.000000
				CHANNELS 3 Zrotation Yrotation Xrotation
				JOINT LeftFoot
				{
					OFFSET 2.562200 -7.039590 0.000000
					CHANNELS 3 Zrotation Yrotation Xrotation
					JOINT LeftToeBase
					{
						OFFSET 0.157640 -0.433110 2.322550
						CHANNELS 3 Zrotation Yrotation Xrotation
						End Site
						{
							OFFSET 0.000000 0.000000 0.000000
						}
					}
				}
			}
		}
	}
	JOINT RHipJoint
	{
		OFFSET 0.000000 0.000000 0.000000
		CHANNELS 3 Zrotation Yrotation Xrotation
		JOINT RightUpLeg
		{
			OFFSET -1.305520 -1.794630 0.839290
			CHANNELS 3 Zrotation Yrotation Xrotation
			JOINT RightLeg
			{
				OFFSET -2.542530 -6.985550 0.000000
				CHANNELS 3 Zrotation Yrotation Xrotation
				JOINT RightFoot
				{
					OFFSET -2.568260 -7.056230 0.000000
					CHANNELS 3 Zrotation Yrotation Xrotation
					JOINT RightToeBase
					{
						OFFSET -0.164730 -0.452590 2.363150
						CHANNELS 3 Zrotation Yrotation Xrotation
						End Site
						{
							OFFSET 0.000000 0.000000 0.000000
						}
					}
				}
			}
		}
	}
	JOINT LowerBack
	{
		OFFSET 0.000000 0.000000 0.000000
		CHANNELS 3 Zrotation Yrotation Xrotation
		JOINT Spine
		{
			OFFSET 0.028270 2.035590 -0.193380
			CHANNELS 3 Zrotation Yrotation Xrotation
			JOINT Spine1
			{
				OFFSET 0.056720 2.048850 -0.042750
				CHANNELS 3 Zrotation Yrotation Xrotation
				JOINT Neck
				{
					OFFSET 0.000000 0.000000 0.000000
					CHANNELS 3 Zrotation Yrotation Xrotation
					JOINT Neck1
					{
						OFFSET -0.054170 1.746240 0.172020
						CHANNELS 3 Zrotation Yrotation Xrotation
						JOINT Head
						{
							OFFSET 0.104070 1.761360 -0.123970
							CHANNELS 3 Zrotation Yrotation Xrotation
							End Site
							{
								OFFSET 0.000000 0.000000 0.000000
							}
						}
					}
				}
				JOINT LeftShoulder
				{
					OFFSET 0.000000 0.000000 0.000000
					CHANNELS 3 Zrotation Yrotation Xrotation
					JOINT LeftArm
					{
						OFFSET 3.362410 1.200890 -0.311210
						CHANNELS 3 Zrotation Yrotation Xrotation
						JOINT LeftForeArm
						{
							OFFSET 4.983000 -0.000000 -0.000000
							CHANNELS 3 Zrotation Yrotation Xrotation
							JOINT LeftHand
							{
								OFFSET 3.483560 -0.000000 -0.000000
								CHANNELS 3 Zrotation Yrotation Xrotation
								JOINT LeftFingerBase
								{
									OFFSET 0.000000 0.000000 0.000000
									CHANNELS 3 Zrotation Yrotation Xrotation
									JOINT LeftHandIndex1
									{
										OFFSET 0.715260 -0.000000 -0.000000
										CHANNELS 3 Zrotation Yrotation Xrotation
										End Site
										{
											OFFSET 0.000000 0.000000 0.000000
										}
									}
								}
								JOINT LThumb
								{
									OFFSET 0.000000 0.000000 0.000000
									CHANNELS 3 Zrotation Yrotation Xrotation
									End Site
									{
										OFFSET 0.000000 0.000000 0.000000
									}
								}
							}
						}
					}
				}
				JOINT RightShoulder
				{
					OFFSET 0.000000 0.000000 0.000000
					CHANNELS 3 Zrotation Yrotation Xrotation
					JOINT RightArm
					{
						OFFSET -3.136600 1.374050 -0.404650
						CHANNELS 3 Zrotation Yrotation Xrotation
						JOINT RightForeArm
						{
							OFFSET -5.241900 -0.000000 -0.000000
							CHANNELS 3 Zrotation Yrotation Xrotation
							JOINT RightHand
							{
								OFFSET -3.444170 -0.000000 -0.000000
								CHANNELS 3 Zrotation Yrotation Xrotation
								JOINT RightFingerBase
								{
									OFFSET 0.000000 0.000000 0.000000
									CHANNELS 3 Zrotation Yrotation Xrotation
									JOINT RightHandIndex1
									{
										OFFSET -0.622530 -0.000000 -0.000000
										CHANNELS 3 Zrotation Yrotation Xrotation
										End Site
										{
											OFFSET 0.000000 0.000000 0.000000
										}
									}
								}
								JOINT RThumb
								{
									OFFSET 0.000000 0.000000 0.000000
									CHANNELS 3 Zrotation Yrotation Xrotation
									End Site
									{
										OFFSET 0.000000 0.000000 0.000000
									}
								}
							}
						}
					}
				}
			}
		}
	}
}
MOTION
Frames: 11
Frame Time: 0.008333
0.572679 16.628982 -4.042552 -6.219462 1.387382 12.514099 9.895455 1.440455 -2.844441 -27.369451 -11.355655 -9.240109 0.977192 11.861721 32.417928 0.852645 11.151558 -29.310276 0.018400 -0.876800 -2.410000 -12.420453 -1.716439 -2.881643 27.534575 11.097100 -29.775717 -6.060443 -19.530930 54.467648 -0.119918 -5.458380 -16.215742 -0.131600 2.338600 -6.442500 3.357326 0.965219 0.594832 0.830040 1.264714 -5.147136 -3.801233 0.430773 -1.000106 4.752148 -1.636650 -20.579245 7.335810 -3.825402 15.349952 -1.408600 0.290400 15.587200 9.643626 -8.635040 2.653323 -81.358672 17.044280 41.172767 95.011698 -54.316273 -54.876805 -1.167532 2.360425 -15.380887 7.120786 24.199840 2.828300 -7.125000 0.000000 0.000000 -20.943100 50.501100 -2.951800 -9.326111 11.388976 2.403197 76.629892 5.750068 56.127691 -78.054914 56.803203 -35.468180 1.117632 -0.526817 -10.765434 5.055124 -8.536717 -0.552600 7.125000 0.000000 0.000000 25.642900 -36.592700 5.780300 
0.596155 16.634960 -4.095157 -6.239272 1.062346 12.670821 9.895041 1.426242 -2.827332 -27.410877 -11.465325 -9.557020 0.961530 11.896209 32.407243 0.835443 11.238462 -29.324695 0.013100 -0.738800 -2.030200 -12.418656 -1.750165 -2.893474 27.858695 10.905141 -29.155598 -6.016541 -19.413753 54.300941 -0.170428 -5.292939 -16.445794 -0.141600 2.425000 -6.681600 3.473418 0.989490 0.464951 0.845422 1.274431 -5.157195 -3.786613 0.441364 -0.978926 4.724566 -1.534361 -20.608972 7.305647 -3.664642 15.305875 -1.428400 0.340600 15.541000 9.734741 -8.663201 2.658348 -81.794542 17.020128 40.888254 93.316891 -54.695965 -53.035024 -1.191619 2.380370 -14.933027 7.120486 23.997898 2.814800 -7.125000 0.000000 0.000000 -20.796700 50.296100 -2.821400 -9.371311 11.412239 2.454758 77.347279 4.534259 55.221361 -76.325062 56.897684 -34.109370 1.151855 -0.576088 -10.695553 5.086722 -8.751721 -0.564800 7.125000 0.000000 0.000000 25.698700 -36.738800 5.693600 
0.617784 16.640612 -4.145915 -6.250813 0.746487 12.828796 9.896220 1.412271 -2.810529 -27.452593 -11.580722 -9.873693 0.947210 11.933075 32.403446 0.817524 11.322694 -29.332018 0.008800 -0.605500 -1.664000 -12.418412 -1.784009 -2.905012 28.167820 10.727046 -28.514978 -5.940699 -19.274261 54.029802 -0.223050 -5.117785 -16.677136 -0.152000 2.512700 -6.924700 3.583860 1.009961 0.328122 0.859623 1.278889 -5.166561 -3.776325 0.449218 -0.951111 4.699368 -1.431456 -20.638462 7.274254 -3.503627 15.266450 -1.449300 0.391800 15.498200 9.828241 -8.688864 2.666909 -82.242781 16.966312 40.547919 91.491125 -55.086687 -51.106387 -1.214465 2.405845 -14.545711 7.133311 23.815924 2.805800 -7.125000 0.000000 0.000000 -20.651300 50.106200 -2.700700 -9.417663 11.433395 2.507602 78.060847 3.366259 54.297973 -74.559027 56.938075 -32.758350 1.184225 -0.637579 -10.614491 5.040004 -8.986584 -0.567000 7.125000 0.000000 0.000000 25.699300 -36.897900 5.583200 
0.637783 16.646481 -4.195151 -6.257900 0.446439 12.996875 9.898753 1.397410 -2.793254 -27.486967 -11.711767 -10.199049 0.933265 11.972477 32.403341 0.798380 11.406645 -29.331864 0.005400 -0.475600 -1.306800 -12.420115 -1.817799 -2.916133 28.465646 10.557918 -27.868405 -5.833853 -19.113687 53.656698 -0.275329 -4.946156 -16.906803 -0.164500 2.612700 -7.202400 3.693981 1.024987 0.176715 0.873556 1.275257 -5.176573 -3.769029 0.452997 -0.920686 4.672751 -1.325446 -20.662710 7.239861 -3.337663 15.232479 -1.471100 0.445400 15.458400 9.924941 -8.713077 2.679320 -82.708997 16.880999 40.152779 89.517081 -55.481880 -49.087420 -1.235644 2.437743 -14.219178 7.157981 23.657427 2.800900 -7.125000 0.000000 0.000000 -20.509600 49.933100 -2.590600 -9.464062 11.452825 2.560859 78.769190 2.240074 53.371105 -72.792951 56.923492 -31.439490 1.215569 -0.710204 -10.549043 4.917846 -9.254475 -0.559700 7.125000 0.000000 0.000000 25.650400 -37.082300 5.442800 
0.655934 16.652459 -4.242539 -6.264929 0.165303 13.171785 9.902407 1.382186 -2.775684 -27.509549 -11.857482 -10.524258 0.919420 12.012121 32.403574 0.779912 11.483789 -29.327352 0.002800 -0.342500 -0.940900 -12.423751 -1.852208 -2.927415 28.760606 10.390861 -27.212611 -5.697308 -18.931611 53.184016 -0.327163 -4.783460 -17.145698 -0.178500 2.721800 -7.505100 3.808328 1.033945 0.011849 0.887422 1.262812 -5.186401 -3.766959 0.452037 -0.883466 4.648434 -1.215489 -20.686085 7.201960 -3.166725 15.203350 -1.495400 0.501700 15.421900 10.024697 -8.735141 2.695838 -83.188986 16.762950 39.709493 87.396096 -55.868406 -46.995773 -1.251246 2.479118 -13.949167 7.222995 23.522683 2.808600 -7.125000 0.000000 0.000000 -20.347700 49.778700 -2.488900 -9.510490 11.470094 2.614097 79.475814 1.161352 52.442608 -71.038991 56.855241 -30.157770 1.244131 -0.791580 -10.499228 4.726226 -9.534902 -0.542000 7.125000 0.000000 0.000000 25.551800 -37.275600 5.284800 
0.672781 16.658437 -4.288405 -6.280524 -0.106021 13.350994 9.906930 1.366645 -2.757936 -27.515511 -12.016147 -10.845555 0.905687 12.051075 32.402804 0.761869 11.559655 -29.324820 0.001000 -0.201400 -0.553500 -12.429998 -1.887346 -2.938438 29.059469 10.230548 -26.548353 -5.532199 -18.728379 52.614681 -0.380612 -4.626755 -17.407399 -0.193500 2.832600 -7.813000 3.939975 1.040506 -0.159719 0.901305 1.245872 -5.196389 -3.774355 0.448448 -0.844470 4.626995 -1.099059 -20.707603 7.157982 -2.987484 15.179415 -1.523600 0.561900 15.390200 10.127695 -8.756297 2.716293 -83.684370 16.613518 39.224553 85.128400 -56.229840 -44.846364 -1.262126 2.531224 -13.727226 7.320168 23.429014 2.828300 -7.125000 0.000000 0.000000 -20.179600 49.657000 -2.404400 -9.555985 11.485862 2.666723 80.178404 0.130648 51.512302 -69.320475 56.737197 -28.925568 1.274534 -0.876107 -10.456623 4.529118 -9.842456 -0.523300 7.125000 0.000000 0.000000 25.455100 -37.490900 5.113400 
0.688540 16.664524 -4.332424 -6.304201 -0.372678 13.521390 9.912031 1.352269 -2.740436 -27.510795 -12.175846 -11.147149 0.892170 12.086825 32.398655 0.741764 11.645058 -29.319440 0.000100 -0.072800 -0.199900 -12.438365 -1.924067 -2.949716 29.363360 10.071420 -25.862944 -5.341132 -18.502238 51.952793 -0.435621 -4.478016 -17.694239 -0.209700 2.948700 -8.135800 4.088999 1.045008 -0.325504 0.915036 1.225934 -5.205709 -3.792087 0.442757 -0.805642 4.609397 -0.975715 -20.724886 7.107326 -2.799673 15.160333 -1.556600 0.626200 15.362200 10.233508 -8.777007 2.740507 -84.194027 16.437864 38.707815 82.726487 -56.546352 -42.661964 -1.268069 2.594756 -13.540865 7.446857 23.382527 2.859700 -7.125000 0.000000 0.000000 -20.009600 49.572600 -2.339800 -9.600246 11.500597 2.718901 80.875586 -0.851636 50.578428 -67.642715 56.572830 -27.742014 1.306003 -0.958841 -10.411226 4.358998 -10.146318 -0.506900 7.125000 0.000000 0.000000 25.377700 -37.702800 4.950200 
0.702996 16.670501 -4.375247 -6.335923 -0.643525 13.691860 9.917643 1.338640 -2.723350 -27.493750 -12.330712 -11.438064 0.878058 12.118906 32.388306 0.722564 11.726723 -29.315260 0.000100 0.058900 0.161900 -12.449633 -1.961096 -2.960089 29.668442 9.927235 -25.170260 -5.125693 -18.255914 51.203097 -0.490201 -4.346887 -18.002281 -0.227500 3.070100 -8.473900 4.250595 1.050192 -0.489992 0.928568 1.206229 -5.215456 -3.817451 0.436589 -0.772243 4.597349 -0.843821 -20.731960 7.049115 -2.601427 15.145412 -1.595900 0.695400 15.336000 10.342123 -8.798269 2.767680 -84.716983 16.244244 38.168112 80.204305 -56.797382 -40.461455 -1.269890 2.670035 -13.358603 7.589528 23.392834 2.900400 -7.125000 0.000000 0.000000 -19.851900 49.532800 -2.300000 -9.642502 11.515196 2.770407 81.561906 -1.788731 49.650844 -66.009130 56.364773 -26.606154 1.338253 -1.038854 -10.318597 4.226932 -10.438206 -0.494200 7.125000 0.000000 0.000000 25.325700 -37.904500 4.800700 
0.716473 16.676262 -4.416114 -6.375346 -0.927005 13.855201 9.923345 1.326799 -2.707746 -27.469714 -12.466580 -11.707247 0.863417 12.145055 32.368928 0.704192 11.809878 -29.317111 0.000800 0.188200 0.517200 -12.463840 -1.998971 -2.970035 29.974621 9.798398 -24.461018 -4.888920 -17.988461 50.371592 -0.544488 -4.234247 -18.332264 -0.246200 3.192800 -8.816000 4.422452 1.057936 -0.653974 0.942188 1.188635 -5.223733 -3.846430 0.431035 -0.735014 4.590404 -0.702146 -20.733725 6.982384 -2.390855 15.134898 -1.642600 0.770300 15.312400 10.454135 -8.819233 2.797395 -85.256199 16.033334 37.613781 77.568111 -56.965516 -38.252284 -1.271465 2.756550 -13.153337 7.717833 23.480425 2.944600 -7.125000 0.000000 0.000000 -19.738400 49.553500 -2.296200 -9.682425 11.528397 2.821300 82.226451 -2.678009 48.739654 -64.427018 56.117721 -25.520705 1.370587 -1.114950 -10.170169 4.137120 -10.709387 -0.486300 7.125000 0.000000 0.000000 25.300300 -38.089000 4.669500 
0.728864 16.682022 -4.455568 -6.414043 -1.222672 14.014112 9.929295 1.316576 -2.693157 -27.446587 -12.581698 -11.960819 0.847262 12.165202 32.338356 0.686137 11.893065 -29.319552 0.002400 0.316100 0.868600 -12.480468 -2.036951 -2.979225 30.270720 9.684253 -23.744430 -4.633913 -17.701284 49.465325 -0.596839 -4.145699 -18.678031 -0.265000 3.311800 -9.148100 4.593946 1.065985 -0.814694 0.956003 1.170543 -5.231883 -3.873709 0.424792 -0.703051 4.584115 -0.549776 -20.721196 6.908830 -2.164836 15.127183 -1.694400 0.851400 15.287600 10.569265 -8.841992 2.828776 -85.813610 15.814626 37.053631 74.833832 -57.030606 -36.043690 -1.271361 2.851525 -12.902271 7.819952 23.613705 2.984700 -7.125000 0.000000 0.000000 -19.666800 49.606300 -2.313600 -9.719346 11.542097 2.871893 82.864812 -3.531833 47.855388 -62.910039 55.837449 -24.492591 1.400406 -1.188878 -9.970030 4.057999 -10.954945 -0.478300 7.125000 0.000000 0.000000 25.276700 -38.252900 4.552900 
0.740167 16.687783 -4.493391 -6.446890 -1.523147 14.169382 9.935454 1.307934 -2.679856 -27.429680 -12.674948 -12.201310 0.829173 12.179686 32.295333 0.666572 11.981502 -29.318460 0.004500 0.435400 1.196300 -12.499005 -2.075140 -2.988760 30.552615 9.575405 -23.022135 -4.363501 -17.393945 48.489966 -0.645728 -4.089863 -19.035421 -0.284800 3.432100 -9.484100 4.757938 1.071224 -0.977063 0.970605 1.147635 -5.238421 -3.894792 0.416214 -0.664845 4.579844 -0.385775 -20.706458 6.829556 -1.922727 15.121048 -1.751300 0.939000 15.263800 10.688174 -8.865231 2.860603 -86.387630 15.578811 36.496611 72.013705 -56.976840 -33.840274 -1.271239 2.953141 -12.600554 7.881725 23.784744 3.015900 -7.125000 0.000000 0.000000 -19.644800 49.683800 -2.349400 -9.753882 11.555301 2.922000 83.469669 -4.340061 47.011909 -61.455161 55.527636 -23.518922 1.420861 -1.265131 -9.741912 3.911925 -11.155323 -0.457700 7.125000 0.000000 0.000000 25.191400 -38.380400 4.448600 
